# xmcd CD database file
#
# Track frame offsets:
#	182
#	13722
#	27472
#	46402
#	61150
#	77685
#	95282
#	113837
#	128367
#	146950
#
# Disc length: 2196 seconds
#
# Revision: 2
# Processed by: cddbd v1.5.2PL0 Copyright (c) Steve Scherf et al.
# Submitted via: CDex 1.70beta2
#
DISCID=7c08920a
DTITLE=South Sixty Five - South Sixty Five
DYEAR=1998
DGENRE=Crossover
TTITLE0=Baby's Got My Number
TTITLE1=Climbing Up Mt. Everest
TTITLE2=I'm There
TTITLE3=Uncle Hickory's General Store
TTITLE4=One Of The Precious Few
TTITLE5=All Of This And More
TTITLE6=No Easy Goodbye
TTITLE7=Love Will Last
TTITLE8=To Me
TTITLE9=Random Acts Of Senseless Kindness
EXTD=YEAR: 1998
EXTT0=
EXTT1=
EXTT2=
EXTT3=
EXTT4=
EXTT5=
EXTT6=
EXTT7=
EXTT8=
EXTT9=
PLAYORDER=
